<svg version="1.2" xmlns="http://www.w3.org/2000/svg" viewBox="0 0 22 22" width="22" height="22">
	<defs>
		<linearGradient id="g1" x2="1" gradientUnits="userSpaceOnUse" gradientTransform="matrix(0,21.707,-21.707,0,10.853,0)">
			<stop offset="0" stop-color="#a5abb7"/>
			<stop offset="1" stop-color="#848b94"/>
		</linearGradient>
	</defs>
	<style>
		.s0 { fill: url(#g1) } 
		.s1 { fill: #ffffff } 
	</style>
	<path class="s0" d="m21.71 10.85c0-5.99-4.86-10.85-10.86-10.85-5.99 0-10.85 4.86-10.85 10.85 0 6 4.86 10.86 10.85 10.86 6 0 10.86-4.86 10.86-10.86z"/>
	<path fill-rule="evenodd" class="s1" d="m4.4 17.59c1.47-2.03 3.85-3.35 6.54-3.35 2.65 0 4.99 1.28 6.46 3.25-1.68 1.67-3.99 2.69-6.55 2.69-2.5 0-4.77-0.99-6.45-2.59zm10.18-8.86c0 2.11-1.63 3.82-3.64 3.82-2.02 0-3.65-1.71-3.65-3.82 0-2.1 1.63-3.81 3.65-3.81 2.01 0 3.64 1.71 3.64 3.81z"/>
</svg>